<svg width="77" height="35" viewBox="0 0 77 35" fill="none" xmlns="http://www.w3.org/2000/svg">
<path d="M0 9.12658L10.5684 7V35L0 32.8734V9.12658Z" fill="black"/>
<path d="M12.3299 0L22.8983 4.61538V30.7692L12.3299 35V0Z" fill="black"/>
<path d="M28.3012 16.625H26.3231C26.2657 16.625 26.2371 16.5965 26.2371 16.5396L26.2715 4.51685C26.2715 4.47127 26.2944 4.44849 26.3403 4.44849H31.9823C32.0396 4.44849 32.0683 4.47127 32.0683 4.51685V6.49072C32.0683 6.5363 32.0453 6.55908 31.9995 6.55908H28.3872V9.27637H31.9995C32.0453 9.27637 32.0683 9.30485 32.0683 9.36182L32.0855 11.3442C32.0855 11.3898 32.0568 11.4126 31.9995 11.4126H28.3872V16.5396C28.3872 16.5965 28.3585 16.625 28.3012 16.625Z" fill="black"/>
<path d="M39.0609 16.625H33.3673C33.3214 16.625 33.2985 16.5965 33.2985 16.5396L33.3157 4.53394C33.3157 4.47697 33.3444 4.44849 33.4017 4.44849H35.3627C35.42 4.44849 35.4487 4.47697 35.4487 4.53394L35.4315 14.4717H39.0609C39.1183 14.4717 39.1469 14.5002 39.1469 14.5571V16.5396C39.1469 16.5965 39.1183 16.625 39.0609 16.625Z" fill="black"/>
<path d="M39.3537 16.5396L41.5383 4.51685C41.5497 4.47127 41.5784 4.44849 41.6243 4.44849H44.1786C44.2245 4.44849 44.2532 4.47127 44.2647 4.51685L46.3632 16.5396C46.3689 16.5965 46.346 16.625 46.2944 16.625H44.3421C44.2847 16.625 44.2532 16.5965 44.2475 16.5396L44.0582 15.2578H41.6587L41.4695 16.5396C41.4637 16.5965 41.4351 16.625 41.3834 16.625H39.4225C39.3766 16.625 39.3537 16.5965 39.3537 16.5396ZM42.8026 8.47314L42.0113 13.3865H43.7056L42.9832 8.47314L42.88 7.82373L42.8026 8.47314Z" fill="black"/>
<path d="M51.2229 16.625H49.0899C49.0383 16.625 49.0097 16.5965 49.0039 16.5396L46.57 4.51685C46.5585 4.47127 46.5814 4.44849 46.6388 4.44849H48.6341C48.68 4.44849 48.7087 4.47127 48.7201 4.51685L50.165 12.532L51.5755 4.51685C51.587 4.47127 51.6157 4.44849 51.6615 4.44849H53.6311C53.6941 4.44849 53.7171 4.47127 53.6999 4.51685L51.3089 16.5396C51.3032 16.5965 51.2745 16.625 51.2229 16.625Z" fill="black"/>
<path d="M57.6393 16.7959C57.0143 16.7959 56.4381 16.6364 55.9106 16.3174C55.3888 15.9984 54.9674 15.574 54.6463 15.0442C54.3309 14.5087 54.1733 13.922 54.1733 13.2839L54.1905 7.73828C54.1905 7.08887 54.3481 6.50496 54.6635 5.98657C54.9731 5.46248 55.3917 5.04378 55.9192 4.73047C56.4467 4.41146 57.0201 4.25195 57.6393 4.25195C58.2815 4.25195 58.8577 4.40861 59.368 4.72192C59.8841 5.03524 60.2969 5.45679 60.6065 5.98657C60.9219 6.51066 61.0796 7.09456 61.0796 7.73828L61.0968 13.2839C61.0968 13.922 60.942 14.5059 60.6323 15.0356C60.317 15.5711 59.8984 15.9984 59.3766 16.3174C58.8549 16.6364 58.2758 16.7959 57.6393 16.7959ZM57.6393 14.6853C57.9948 14.6853 58.3044 14.5429 58.5682 14.2581C58.8319 13.9675 58.9638 13.6428 58.9638 13.2839L58.9466 7.73828C58.9466 7.35091 58.8233 7.02336 58.5768 6.75562C58.3302 6.48787 58.0177 6.354 57.6393 6.354C57.2781 6.354 56.9685 6.48503 56.7104 6.74707C56.4524 7.00911 56.3234 7.33952 56.3234 7.73828V13.2839C56.3234 13.6656 56.4524 13.996 56.7104 14.2751C56.9685 14.5486 57.2781 14.6853 57.6393 14.6853Z" fill="black"/>
<path d="M65.32 16.7959C64.7008 16.7959 64.1274 16.6364 63.5999 16.3174C63.0724 15.9984 62.651 15.5711 62.3356 15.0356C62.026 14.4945 61.8712 13.9049 61.8712 13.2668L61.9056 4.51685C61.9056 4.47127 61.9285 4.44849 61.9744 4.44849H63.9525C63.9984 4.44849 64.0213 4.47127 64.0213 4.51685V13.2668C64.0213 13.6599 64.1475 13.996 64.3997 14.2751C64.652 14.5486 64.9588 14.6853 65.32 14.6853C65.6984 14.6853 66.0138 14.5486 66.2661 14.2751C66.5184 13.996 66.6445 13.6599 66.6445 13.2668V4.51685C66.6445 4.47127 66.6674 4.44849 66.7133 4.44849H68.6915C68.7373 4.44849 68.7603 4.47127 68.7603 4.51685L68.7947 13.2668C68.7947 13.9106 68.6399 14.503 68.3302 15.0442C68.0149 15.5797 67.5963 16.0069 67.0745 16.3259C66.5528 16.6392 65.9679 16.7959 65.32 16.7959Z" fill="black"/>
<path d="M71.8912 16.625H69.8959C69.85 16.625 69.8271 16.5965 69.8271 16.5396L69.8615 4.51685C69.8615 4.47127 69.8844 4.44849 69.9303 4.44849H73.4909C74.1274 4.44849 74.7122 4.60229 75.2455 4.90991C75.7787 5.21753 76.203 5.63053 76.5184 6.14893C76.8395 6.66732 77 7.25407 77 7.90918C77 8.33643 76.9341 8.7238 76.8022 9.07129C76.6703 9.41878 76.5155 9.71216 76.3378 9.95142C76.1657 10.1907 76.0081 10.3673 75.8647 10.4812C76.5012 11.1819 76.8194 12.005 76.8194 12.9507L76.8366 16.5396C76.8366 16.5965 76.8079 16.625 76.7506 16.625H74.7552C74.7094 16.625 74.6864 16.6079 74.6864 16.5737V12.9507C74.6864 12.5291 74.5374 12.1646 74.2392 11.8569C73.941 11.5493 73.5741 11.3955 73.1383 11.3955H71.9772L71.96 16.5396C71.96 16.5965 71.9371 16.625 71.8912 16.625ZM73.4909 6.54199H71.9772V9.29346H73.4909C73.8522 9.29346 74.1733 9.15959 74.4542 8.89185C74.7409 8.6241 74.8842 8.29655 74.8842 7.90918C74.8842 7.5389 74.7466 7.21989 74.4714 6.95215C74.1962 6.67871 73.8694 6.54199 73.4909 6.54199Z" fill="black"/>
<path d="M30.1108 32.5459C29.4858 32.5459 28.9096 32.3864 28.3821 32.0674C27.8603 31.7484 27.4417 31.324 27.1264 30.7942C26.8167 30.2587 26.6619 29.672 26.6619 29.0339V28.2307C26.6619 28.1681 26.6906 28.1367 26.7479 28.1367H28.7261C28.772 28.1367 28.7949 28.1681 28.7949 28.2307V29.0339C28.7949 29.4156 28.9239 29.746 29.1819 30.0251C29.4399 30.2986 29.7496 30.4353 30.1108 30.4353C30.4777 30.4353 30.7902 30.2957 31.0483 30.0166C31.3063 29.7318 31.4353 29.4042 31.4353 29.0339C31.4353 28.6067 31.1543 28.2336 30.5924 27.9146C30.5007 27.8576 30.3803 27.7892 30.2312 27.7095C30.0878 27.624 29.9158 27.5272 29.7152 27.4189C29.5145 27.3107 29.3195 27.2053 29.1303 27.1028C28.9411 26.9945 28.7576 26.892 28.5799 26.7952C27.9377 26.4192 27.4589 25.9492 27.1436 25.3853C26.8339 24.8156 26.6791 24.1776 26.6791 23.4712C26.6791 22.8218 26.8397 22.235 27.1608 21.7109C27.4819 21.1925 27.9004 20.7824 28.4165 20.4805C28.9382 20.1729 29.503 20.019 30.1108 20.019C30.7358 20.019 31.3091 20.1729 31.8309 20.4805C32.3527 20.7938 32.7684 21.2096 33.078 21.728C33.3934 22.2464 33.551 22.8275 33.551 23.4712V24.9067C33.551 24.9523 33.5281 24.9751 33.4822 24.9751H31.5041C31.4582 24.9751 31.4353 24.9523 31.4353 24.9067L31.4181 23.4712C31.4181 23.061 31.2891 22.7278 31.031 22.4714C30.773 22.2151 30.4663 22.0869 30.1108 22.0869C29.7496 22.0869 29.4399 22.2236 29.1819 22.4971C28.9239 22.7705 28.7949 23.0952 28.7949 23.4712C28.7949 23.8529 28.8752 24.1719 29.0357 24.4282C29.202 24.6846 29.503 24.9295 29.9388 25.1631C29.9846 25.1859 30.0907 25.2428 30.257 25.334C30.4233 25.4251 30.6068 25.5277 30.8074 25.6416C31.0138 25.7498 31.2002 25.8495 31.3665 25.9407C31.5328 26.0261 31.6331 26.0774 31.6675 26.0945C32.2523 26.4192 32.7139 26.818 33.0522 27.2908C33.3962 27.7636 33.5682 28.3446 33.5682 29.0339C33.5682 29.7004 33.4134 30.2986 33.1038 30.8284C32.7884 31.3582 32.3699 31.7769 31.8481 32.0845C31.3263 32.3921 30.7472 32.5459 30.1108 32.5459Z" fill="black"/>
<path d="M38.1957 32.375H36.209C36.1574 32.375 36.1316 32.3465 36.1316 32.2896V22.3091H33.8438C33.7865 22.3091 33.7578 22.2806 33.7578 22.2236L33.775 20.2668C33.775 20.2213 33.7979 20.1985 33.8438 20.1985H40.5351C40.5982 20.1985 40.6297 20.2213 40.6297 20.2668V22.2236C40.6297 22.2806 40.6068 22.3091 40.5609 22.3091H38.2473L38.2645 32.2896C38.2645 32.3465 38.2416 32.375 38.1957 32.375Z" fill="black"/>
<path d="M44.3799 32.5459C43.7607 32.5459 43.1873 32.3864 42.6598 32.0674C42.1323 31.7484 41.7108 31.3211 41.3955 30.7856C41.0859 30.2445 40.9311 29.6549 40.9311 29.0168L40.9655 20.2668C40.9655 20.2213 40.9884 20.1985 41.0343 20.1985H43.0124C43.0583 20.1985 43.0812 20.2213 43.0812 20.2668V29.0168C43.0812 29.4099 43.2074 29.746 43.4596 30.0251C43.7119 30.2986 44.0187 30.4353 44.3799 30.4353C44.7583 30.4353 45.0737 30.2986 45.326 30.0251C45.5783 29.746 45.7044 29.4099 45.7044 29.0168V20.2668C45.7044 20.2213 45.7273 20.1985 45.7732 20.1985H47.7513C47.7972 20.1985 47.8202 20.2213 47.8202 20.2668L47.8546 29.0168C47.8546 29.6606 47.6997 30.253 47.3901 30.7942C47.0748 31.3297 46.6562 31.7569 46.1344 32.0759C45.6127 32.3892 45.0278 32.5459 44.3799 32.5459Z" fill="black"/>
<path d="M52.1294 32.3579L48.973 32.375C48.9156 32.375 48.887 32.3465 48.887 32.2896L48.9214 20.2668C48.9214 20.2213 48.9443 20.1985 48.9902 20.1985L52.2842 20.1814C52.9379 20.1643 53.5284 20.3124 54.0559 20.6257C54.5892 20.939 55.0135 21.3634 55.3288 21.8989C55.6499 22.4287 55.8105 23.0155 55.8105 23.6592V28.6836C55.8105 29.3558 55.6471 29.971 55.3202 30.5293C54.9877 31.0819 54.5462 31.5234 53.9957 31.8538C53.4453 32.1785 52.8232 32.3465 52.1294 32.3579ZM52.2842 22.2749L51.0543 22.292L51.0371 30.2217H52.1294C52.5652 30.2217 52.9321 30.0707 53.2303 29.7688C53.5284 29.4669 53.6775 29.1051 53.6775 28.6836V23.6421C53.6775 23.2718 53.5399 22.95 53.2647 22.6765C52.9895 22.3974 52.6626 22.2635 52.2842 22.2749Z" fill="black"/>
<path d="M58.9242 32.375H56.9289C56.8716 32.375 56.8429 32.3465 56.8429 32.2896L56.8601 20.2668C56.8601 20.2213 56.883 20.1985 56.9289 20.1985H58.907C58.9529 20.1985 58.9758 20.2213 58.9758 20.2668L58.993 32.2896C58.993 32.3465 58.9701 32.375 58.9242 32.375Z" fill="black"/>
<path d="M63.4485 32.5459C62.8235 32.5459 62.2473 32.3864 61.7198 32.0674C61.198 31.7484 60.7766 31.324 60.4555 30.7942C60.1401 30.2587 59.9825 29.672 59.9825 29.0339L59.9997 23.4883C59.9997 22.8389 60.1573 22.255 60.4727 21.7366C60.7823 21.2125 61.2009 20.7938 61.7284 20.4805C62.2559 20.1615 62.8293 20.002 63.4485 20.002C64.0907 20.002 64.6669 20.1586 65.1772 20.4719C65.6933 20.7852 66.1061 21.2068 66.4157 21.7366C66.7311 22.2607 66.8888 22.8446 66.8888 23.4883L66.906 29.0339C66.906 29.672 66.7512 30.2559 66.4415 30.7856C66.1262 31.3211 65.7076 31.7484 65.1858 32.0674C64.6641 32.3864 64.085 32.5459 63.4485 32.5459ZM63.4485 30.4353C63.804 30.4353 64.1136 30.2929 64.3774 30.0081C64.6411 29.7175 64.773 29.3928 64.773 29.0339L64.7558 23.4883C64.7558 23.1009 64.6325 22.7734 64.386 22.5056C64.1394 22.2379 63.8269 22.104 63.4485 22.104C63.0873 22.104 62.7777 22.235 62.5196 22.4971C62.2616 22.7591 62.1326 23.0895 62.1326 23.4883V29.0339C62.1326 29.4156 62.2616 29.746 62.5196 30.0251C62.7777 30.2986 63.0873 30.4353 63.4485 30.4353Z" fill="black"/>
</svg>
